o DoorCollider
v -1 0.10000000149011612 0.4
v -0.4 0.10000000149011612 1
v -0.4 -0.10000000149011612 1
v -1 -0.10000000149011612 0.4
v 1 0.10000000149011612 1
v 1 -0.10000000149011612 1
v 1 0.10000000149011612 -1
v 1 -0.10000000149011612 -1
v -1 0.10000000149011612 -1
v -1 -0.10000000149011612 -1
vn 2 0 -0.6
vn 0.6 0 -2
vn -2 0 -1.4
vn -2 0 2
vn 1.4 0 2
vn 0 1 0
g DoorCollider
f 1//1 2//2 3//2 4//1
f 2//2 5//3 6//3 3//2
f 5//3 7//4 8//4 6//3
f 7//4 9//5 10//5 8//4
f 9//5 1//1 4//1 10//5
f 5//6 7//6 9//6
f 5//6 9//6 1//6
f 1//6 2//6 5//6
